<?xml version="1.0" encoding="UTF-8"?>
<svg id="Layer_1" xmlns="http://www.w3.org/2000/svg" version="1.1" viewBox="0 0 750 500">
  <!-- Generator: Adobe Illustrator 29.1.0, SVG Export Plug-In . SVG Version: 2.1.0 Build 142)  -->
  <defs>
    <style>
      .st0 {
        fill: #ffbf9d;
      }

      .st1 {
        fill: #ff9a6c;
      }

      .st2 {
        fill: #263238;
      }

      .st3 {
        fill: #fff;
      }

      .st4 {
        opacity: .2;
      }

      .st5 {
        fill: #e0e0e0;
      }

      .st6 {
        opacity: .3;
      }

      .st7 {
        fill: #455a64;
      }

      .st8 {
        fill: #ebebeb;
      }

      .st9 {
        fill: #5774ff;
      }
    </style>
  </defs>
  <g id="Background_Complete">
    <g>
      <ellipse class="st8" cx="590.8" cy="92.3" rx="37" ry="31.4" transform="translate(474.9 678.9) rotate(-87.7)"/>
      <path class="st5" d="M612.6,93.3c-.9,18.6-13.3,33.4-28.6,35.2,1.6.4,3.3.6,5,.7,17.3.9,32.2-14.9,33.1-35.4,1-20.4-12.3-37.7-29.6-38.6-1.5,0-3,0-4.5.2,14.8,3.6,25.5,19.4,24.6,37.8h0Z"/>
    </g>
    <g>
      <path class="st8" d="M365.4,419.5c20.4-1.6,37,5.2,37.2,15.1s-16.2,19.3-36.6,20.9-37-5.2-37.2-15.1,16.2-19.3,36.6-20.9Z"/>
      <path class="st5" d="M366,450c-18.6,1.5-34-4-36.7-12.5-.3,1-.4,1.9-.4,2.9.2,9.9,16.8,16.7,37.2,15.1s36.7-11,36.6-20.9c0-.9-.2-1.7-.4-2.6-2.7,8.8-17.8,16.5-36.1,18h-.2Z"/>
    </g>
    <g>
      <ellipse class="st8" cx="87.3" cy="378.6" rx="24.4" ry="28.8" transform="translate(-222.9 144.7) rotate(-40)"/>
      <path class="st5" d="M74,389.8c9.4,11,24.1,14.3,34.4,8.1-.8,1-1.7,2-2.7,2.8-10.3,8.8-26.9,6.1-37.2-6-10.3-12.1-10.4-29.1,0-37.8.9-.8,1.9-1.5,2.9-2.1-7.4,9.3-6.5,24.1,2.8,35h-.2Z"/>
    </g>
    <g>
      <ellipse class="st8" cx="57.3" cy="254" rx="18.8" ry="12.8" transform="translate(-197.5 307.7) rotate(-89.2)"/>
      <path class="st5" d="M48.4,253.9c-.2,9.5,4.4,17.4,10.6,18.9-.7.1-1.4.2-2.1.2-7.1-.2-12.7-8.8-12.4-19.2.2-10.4,6.2-18.6,13.2-18.4.6,0,1.2.1,1.8.2-6.1,1.3-11,8.9-11.2,18.2h.1Z"/>
    </g>
    <g>
      <path class="st8" d="M659.6,338.4c-5.4,10.1-2.7,22.1,5.9,26.6,8.6,4.5,20,0,25.4-10.2,5.4-10.1,2.7-22.1-5.9-26.6-8.6-4.5-20,0-25.4,10.2Z"/>
      <path class="st5" d="M686.1,352.4c4.9-9.2,3.1-20-3.7-25.2.9.3,1.8.6,2.6,1.1,8.6,4.5,11.3,16.4,5.9,26.6-5.4,10.1-16.7,14.7-25.4,10.2-.8-.4-1.5-.9-2.1-1.4,8.2,2.5,17.9-2.1,22.7-11.2h0Z"/>
    </g>
    <g>
      <ellipse class="st8" cx="185.7" cy="83.7" rx="28.8" ry="24.4" transform="translate(45.3 231.3) rotate(-70.7)"/>
      <path class="st5" d="M167.9,77.4c-4.7,13.7,0,28,10.6,33.7-1.3-.2-2.6-.5-3.8-.9-12.8-4.3-19-20-13.8-35.1,5.1-15.1,19.7-23.7,32.5-19.4,1.1.4,2.2.9,3.2,1.4-11.7-1.6-24,6.8-28.7,20.3Z"/>
    </g>
    <path class="st5" d="M519.5,82.5l4.2,2.5c.5.3.5,1.1,0,1.4l-4.5,2.2s-.3.2-.3.3l-2.6,4.3c-.3.6-1.1.5-1.4,0l-2.1-4.4s-.2-.3-.3-.3l-4.2-2.5c-.5-.3-.5-1.1,0-1.4l4.5-2.2s.3-.2.3-.3l2.6-4.3c.3-.6,1.1-.5,1.4,0l2.1,4.4s.2.3.3.3Z"/>
    <path class="st5" d="M112.6,444.4l4.2,2.5c.5.3.5,1.1,0,1.4l-4.5,2.2s-.3.2-.3.3l-2.6,4.3c-.3.6-1.1.5-1.4,0l-2.1-4.4c0-.1-.2-.3-.3-.3l-4.2-2.5c-.5-.3-.5-1.1,0-1.4l4.5-2.2s.3-.2.3-.3l2.6-4.3c.3-.6,1.1-.5,1.4,0l2.1,4.4c0,.1.2.3.3.3Z"/>
    <path class="st5" d="M483.8,441.4l4.2,2.5c.5.3.5,1.1,0,1.4l-4.5,2.2c-.1,0-.3.2-.3.3l-2.6,4.3c-.3.6-1.1.5-1.4,0l-2.1-4.4c0-.1-.2-.3-.3-.3l-4.2-2.5c-.5-.3-.5-1.1,0-1.4l4.5-2.2c.1,0,.3-.2.3-.3l2.6-4.3c.3-.6,1.1-.5,1.4,0l2.1,4.4c0,.1.2.3.3.3Z"/>
    <path class="st5" d="M666.9,437.8l4.2,2.5c.5.3.5,1.1,0,1.4l-4.5,2.2s-.3.2-.3.3l-2.6,4.3c-.3.6-1.1.5-1.4,0l-2.1-4.4c0-.1-.2-.3-.3-.3l-4.2-2.5c-.5-.3-.5-1.1,0-1.4l4.5-2.2s.3-.2.3-.3l2.6-4.3c.3-.6,1.1-.5,1.4,0l2.1,4.4c0,.1.2.3.3.3Z"/>
    <path class="st5" d="M218.2,131l4.2,2.5c.5.3.5,1.1,0,1.4l-4.5,2.2c-.1,0-.3.2-.3.3l-2.6,4.3c-.3.6-1.1.5-1.4,0l-2.1-4.4c0-.1-.2-.3-.3-.3l-4.2-2.5c-.5-.3-.5-1.1,0-1.4l4.5-2.2c.1,0,.3-.2.3-.3l2.6-4.3c.3-.6,1.1-.5,1.4,0l2.1,4.4c0,.1.2.3.3.3Z"/>
    <path class="st5" d="M245.1,46.5l4.2,2.5c.5.3.5,1.1,0,1.4l-4.5,2.2c-.1,0-.3.2-.3.3l-2.6,4.3c-.3.6-1.1.5-1.4,0l-2.1-4.4s-.2-.3-.3-.3l-4.2-2.5c-.5-.3-.5-1.1,0-1.4l4.5-2.2c.1,0,.3-.2.3-.3l2.6-4.3c.3-.6,1.1-.5,1.4,0l2.1,4.4s.2.3.3.3Z"/>
    <path class="st5" d="M108.9,83.3l2.1,1.3c.3.2.3.6,0,.7l-2.3,1.1-.2.2-1.3,2.2c-.2.3-.6.3-.7,0l-1.1-2.2-.2-.2-2.1-1.3c-.3-.2-.3-.6,0-.7l2.3-1.1.2-.2,1.3-2.2c.2-.3.6-.3.7,0l1.1,2.2.2.2Z"/>
    <path class="st5" d="M346.7,71l2.1,1.3c.3.2.3.6,0,.7l-2.3,1.1s-.1,0-.2.2l-1.3,2.2c-.2.3-.6.3-.7,0l-1.1-2.2-.2-.2-2.1-1.3c-.3-.2-.3-.6,0-.7l2.3-1.1s.1,0,.2-.2l1.3-2.2c.2-.3.6-.3.7,0l1.1,2.2.2.2Z"/>
    <path class="st5" d="M544.5,56.9l2.1,1.3c.3.2.3.6,0,.7l-2.3,1.1-.2.2-1.3,2.2c-.2.3-.6.3-.7,0l-1.1-2.2-.2-.2-2.1-1.3c-.3-.2-.3-.6,0-.7l2.3-1.1.2-.2,1.3-2.2c.2-.3.6-.3.7,0l1.1,2.2.2.2Z"/>
    <path class="st5" d="M681.1,63.9l2.1,1.3c.3.2.3.6,0,.7l-2.3,1.1-.2.2-1.3,2.2c-.2.3-.6.3-.7,0l-1.1-2.2-.2-.2-2.1-1.3c-.3-.2-.3-.6,0-.7l2.3-1.1.2-.2,1.3-2.2c.2-.3.6-.3.7,0l1.1,2.2.2.2Z"/>
    <path class="st5" d="M436.9,462.8l2.5,1.5c.3.2.3.7,0,.8l-2.6,1.3s-.2.1-.2.2l-1.5,2.5c-.2.3-.7.3-.8,0l-1.3-2.6-.2-.2-2.5-1.5c-.3-.2-.3-.7,0-.8l2.6-1.3s.2-.1.2-.2l1.5-2.5c.2-.3.7-.3.8,0l1.3,2.6.2.2Z"/>
    <path class="st5" d="M698.4,281.6l2.5,1.5c.3.2.3.7,0,.8l-2.6,1.3s-.2.1-.2.2l-1.5,2.5c-.2.3-.7.3-.8,0l-1.3-2.6s0-.1-.2-.2l-2.5-1.5c-.3-.2-.3-.7,0-.8l2.6-1.3s.2-.1.2-.2l1.5-2.5c.2-.3.7-.3.8,0l1.3,2.6s0,.1.2.2Z"/>
    <path class="st5" d="M53,303.8l2,1.2c.3.2.2.5,0,.7l-2.1,1.1h-.2c0,.1-1.2,2.1-1.2,2.1-.2.3-.5.3-.7,0l-1-2.1v-.2l-2-1.2c-.3-.2-.2-.5,0-.7l2.1-1.1h.2c0-.1,1.2-2.1,1.2-2.1.2-.3.5-.3.7,0l1,2.1v.2Z"/>
    <path class="st5" d="M265.7,452.5l2,1.2c.3.2.2.5,0,.7l-2.1,1.1s-.1,0-.2.1l-1.2,2c-.2.3-.5.3-.7,0l-1-2.1s0-.1-.1-.2l-2-1.2c-.3-.2-.2-.5,0-.7l2.1-1.1s.1,0,.2-.1l1.2-2c.2-.3.5-.3.7,0l1,2.1s0,.1.1.2Z"/>
    <path class="st5" d="M649.1,403.6l2,1.2c.3.2.2.5,0,.7l-2.1,1.1h-.2c0,.1-1.2,2.1-1.2,2.1-.2.3-.5.3-.7,0l-1-2.1v-.2l-2-1.2c-.3-.2-.2-.5,0-.7l2.1-1.1h.2c0-.1,1.2-2.1,1.2-2.1.2-.3.5-.3.7,0l1,2.1v.2Z"/>
    <path class="st5" d="M606.5,451.1l2,1.2c.3.2.2.5,0,.7l-2.1,1.1h-.2c0,.1-1.2,2.1-1.2,2.1-.2.3-.5.3-.7,0l-1-2.1v-.2l-2-1.2c-.3-.2-.2-.5,0-.7l2.1-1.1h.2c0-.1,1.2-2.1,1.2-2.1.2-.3.5-.3.7,0l1,2.1v.2Z"/>
    <path class="st5" d="M649.5,145.2l2.2,1.3c.3.2.3.6,0,.7l-2.3,1.2-.2.2-1.4,2.2c-.2.3-.6.3-.7,0l-1.1-2.3s0-.1-.2-.2l-2.2-1.3c-.3-.2-.3-.6,0-.7l2.3-1.2.2-.2,1.4-2.2c.2-.3.6-.3.7,0l1.1,2.3s0,.1.2.2Z"/>
  </g>
  <g id="Stars">
    <g>
      <path class="st9" d="M579.8,183.2l1,.6v.3l-1.1.5h0l-.6,1c0,.1-.3.1-.3,0l-.6-1.1h0l-1-.6v-.3l1.1-.5h0l.6-1c0-.1.3-.1.3,0l.6,1.1h0Z"/>
      <path class="st9" d="M580.6,334.4l1,.6v.3l-1.1.5h0l-.6,1c0,.1-.3.1-.3,0l-.6-1.1h0l-1-.6v-.3l1.1-.5h0l.6-1c0-.1.3-.1.3,0l.6,1.1h0Z"/>
      <path class="st9" d="M622.1,265.1l2,1.2c.3.2.2.5,0,.7l-2.1,1.1h-.2c0,.1-1.2,2.1-1.2,2.1-.2.3-.5.3-.7,0l-1-2.1v-.2l-2-1.2c-.3-.2-.2-.5,0-.7l2.1-1.1h.2c0-.1,1.2-2.1,1.2-2.1.2-.3.5-.3.7,0l1,2.1v.2Z"/>
      <path class="st9" d="M568.6,194.5l2,1.3c.3.2.3.5,0,.7l-2.1,1h-.2c0,.1-1.2,2.1-1.2,2.1-.2.3-.5.2-.7,0l-1.1-2.1v-.2l-2-1.3c-.3-.2-.3-.5,0-.7l2.1-1h.2c0-.1,1.2-2.1,1.2-2.1.2-.3.5-.2.7,0l1.1,2.1v.2Z"/>
      <path class="st9" d="M93.5,253.3l1.5,1c.2.1.2.4,0,.5l-1.6.7h0c0,.1-.9,1.6-.9,1.6,0,.2-.4.2-.5,0l-.8-1.6h0c0-.1-1.5-1.1-1.5-1.1-.2-.1-.2-.4,0-.5l1.6-.7h0c0-.1.9-1.6.9-1.6,0-.2.4-.2.5,0l.8,1.6h0Z"/>
      <path class="st9" d="M126.6,288l1.5.8c.2.1.2.4,0,.5l-1.5.8h0c0,.1-.8,1.5-.8,1.5,0,.2-.4.2-.5,0l-.8-1.5h0c0-.1-1.5-.9-1.5-.9-.2-.1-.2-.4,0-.5l1.5-.8h0c0-.1.8-1.5.8-1.5,0-.2.4-.2.5,0l.8,1.5h0Z"/>
      <path class="st9" d="M170.9,173.3l1.5.8c.2.1.2.4,0,.5l-1.5.8h-.1c0,.1-.8,1.5-.8,1.5-.1.2-.4.2-.5,0l-.8-1.5h-.1c0-.1-1.5-.9-1.5-.9-.2-.1-.2-.4,0-.5l1.5-.8h.1c0-.1.8-1.5.8-1.5.1-.2.4-.2.5,0l.8,1.5h.1Z"/>
      <path class="st9" d="M285.9,149l1.5.8c.2.1.2.4,0,.5l-1.5.8h-.1c0,.1-.8,1.5-.8,1.5-.1.2-.4.2-.5,0l-.8-1.5h-.1c0-.1-1.5-.9-1.5-.9-.2-.1-.2-.4,0-.5l1.5-.8h.1c0-.1.8-1.5.8-1.5.1-.2.4-.2.5,0l.8,1.5h.1Z"/>
      <path class="st9" d="M115.8,293.5l2.9,1.7c.4.2.4.8,0,1l-2.9,1.5s-.2.1-.2.2l-1.6,2.9c-.2.4-.7.4-1,0l-1.6-3s0-.2-.2-.2l-2.9-1.7c-.4-.2-.4-.8,0-1l2.9-1.5s.2-.1.2-.2l1.6-2.9c.2-.4.7-.4,1,0l1.6,3s0,.2.2.2Z"/>
      <path class="st9" d="M306.6,133.7l2.9,1.7c.4.2.4.8,0,1l-2.9,1.5s-.2.1-.2.2l-1.6,2.9c-.2.4-.7.4-1,0l-1.6-3s-.1-.2-.2-.2l-2.9-1.7c-.4-.2-.4-.8,0-1l2.9-1.5s.2-.1.2-.2l1.6-2.9c.2-.4.7-.4,1,0l1.6,3s.1.2.2.2Z"/>
      <path class="st9" d="M264.7,419l2.9,1.7c.4.2.4.8,0,1l-2.9,1.5s-.2.1-.2.2l-1.6,2.9c-.2.4-.7.4-1,0l-1.6-3s-.1-.2-.2-.2l-2.9-1.7c-.4-.2-.4-.8,0-1l2.9-1.5s.2-.1.2-.2l1.6-2.9c.2-.4.7-.4,1,0l1.6,3s.1.2.2.2Z"/>
      <path class="st9" d="M537.7,366.9l2.9,1.7c.4.2.4.8,0,1l-2.9,1.5s-.2.1-.2.2l-1.6,2.9c-.2.4-.7.4-1,0l-1.6-3s0-.2-.2-.2l-2.9-1.7c-.4-.2-.4-.8,0-1l2.9-1.5s.2-.1.2-.2l1.6-2.9c.2-.4.7-.4,1,0l1.6,3s0,.2.2.2Z"/>
      <path class="st9" d="M497.3,149.7l1.9,1.1c.2.1.3.5,0,.6l-1.9,1s-.1,0-.1.1l-1,1.9c-.1.2-.5.2-.6,0l-1.1-1.9s0-.1-.1-.1l-1.9-1.1c-.2-.1-.3-.5,0-.6l1.9-1s.1,0,.1-.1l1-1.9c.1-.2.5-.2.6,0l1.1,1.9s0,.1.1.1Z"/>
    </g>
  </g>
  <g id="Portals">
    <g>
      <ellipse class="st2" cx="282.3" cy="92.7" rx="22.7" ry="11.6" transform="translate(-14.8 87.6) rotate(-17.2)"/>
      <path class="st7" d="M279.5,85c10.9-3.5,21.4-2.4,24.8,2.4,0-.6-.1-1.2-.4-1.8-2.2-6-13.6-7.8-25.6-3.9-11.9,3.9-19.8,11.9-17.6,17.9.2.5.5,1,.8,1.5-.2-5.7,7.2-12.6,18-16.1h0Z"/>
    </g>
    <g>
      <ellipse class="st2" cx="567.1" cy="411.5" rx="42.8" ry="27.5" transform="translate(-128.3 497.3) rotate(-43)"/>
      <path class="st7" d="M580.2,424.9c-15.7,14.7-35.8,19.5-47.1,11.8.7,1.3,1.6,2.5,2.6,3.6,10.4,11.1,32.8,6.9,50.1-9.2,17.3-16.2,22.8-38.2,12.4-49.3-.9-1-1.9-1.8-3-2.6,6.6,11.8.5,31.2-15,45.7Z"/>
    </g>
    <g>
      <path class="st2" d="M409.8,157.6c-31.3-5.3-54.1-19.2-51-31.1s31.1-17.1,62.4-11.7c31.3,5.3,54.1,19.2,51,31.1-3.1,11.8-31.1,17.1-62.4,11.7Z"/>
      <path class="st7" d="M419.3,121.3c28.5,4.9,50,16.8,51.2,27.9.8-1,1.3-2.1,1.6-3.3,3.1-11.8-19.7-25.7-51-31.1-31.3-5.3-59.2,0-62.4,11.7-.3,1-.3,2.1-.2,3.2,7-9.5,32.5-13.3,60.7-8.4h0Z"/>
      <g>
        <path class="st7" d="M413.1,134.4c7.2,3.7,12,10.8,18.6,15.4,4.4,3.1,9.7,5.2,12.7,9.6-.3-2.6-2.1-4.8-3.9-6.7-5-5.4-10.7-10.3-16.8-14.4-3.1-2.1-6.6-4.2-10.4-4.1"/>
        <g class="st4">
          <path d="M413.1,134.4c7.2,3.7,12,10.8,18.6,15.4,4.4,3.1,9.7,5.2,12.7,9.6-.3-2.6-2.1-4.8-3.9-6.7-5-5.4-10.7-10.3-16.8-14.4-3.1-2.1-6.6-4.2-10.4-4.1"/>
        </g>
        <path class="st7" d="M447.2,37.6c-.1-1.2-.3-2.4-1.1-3.3-1.1-1.2-2.9-1.3-4.5-1.2-6.8.5-15.5,10.6-19.7,16l.7,30.1c18.7-9.8,26.2-27.2,24.6-41.7h0Z"/>
        <g class="st4">
          <path d="M447.2,37.6c-.1-1.2-.3-2.4-1.1-3.3-1.1-1.2-2.9-1.3-4.5-1.2-6.8.5-15.5,10.6-19.7,16l.7,30.1c18.7-9.8,26.2-27.2,24.6-41.7h0Z"/>
        </g>
        <path class="st7" d="M417.7,99.4c3.6-1.2,7.1-2.3,10.7-2.9s7.1-2.1,10.6-2.9c4.5-1.1,8.8-3.1,13.1-4.8,4.4-1.7,9-3,13.6-2.5-3.4-1.7-7.3-2.4-11.2-2.4s-7.7.6-11.4,1.2c-5.3.8-10.6,1.7-15.4,4.1s-9.1,4.8-10.1,10.1"/>
        <g class="st4">
          <path d="M417.7,99.4c3.6-1.2,7.1-2.3,10.7-2.9s7.1-2.1,10.6-2.9c4.5-1.1,8.8-3.1,13.1-4.8,4.4-1.7,9-3,13.6-2.5-3.4-1.7-7.3-2.4-11.2-2.4s-7.7.6-11.4,1.2c-5.3.8-10.6,1.7-15.4,4.1s-9.1,4.8-10.1,10.1"/>
        </g>
        <path class="st7" d="M393.4,100.4c-4.6-6.8-13.9-8.7-21.8-10.7,10.6,9.1,21.5,20.6,29.7,31.9,1.8-5.5-2-12.7-7.8-21.2h-.1Z"/>
        <g class="st4">
          <path d="M393.4,100.4c-4.6-6.8-13.9-8.7-21.8-10.7,10.6,9.1,21.5,20.6,29.7,31.9,1.8-5.5-2-12.7-7.8-21.2h-.1Z"/>
        </g>
        <path class="st7" d="M399.4,142.4c-9.5-2.7-17.4-13.6-26.7-16.7,10.8-.5,24.3,6,26.7,16.7"/>
        <g class="st4">
          <path d="M399.4,142.4c-9.5-2.7-17.4-13.6-26.7-16.7,10.8-.5,24.3,6,26.7,16.7"/>
        </g>
        <path class="st7" d="M408.9,120.4c5.3-.4,10.7.9,15.5,3.1,4.9,2.2,9.4,5.1,13.8,8.1.4-3.4-1.6-6.7-3.5-9.6-1.4-2.2-2.9-4.4-4.7-6.2-1.8-1.9-4.1-3.4-6.6-4-3.1-.7-6.4,0-9,1.8s-4.3,3.8-5.5,6.7"/>
        <path class="st7" d="M400.1,155.5s4.7-32.2,9.9-50c5.2-17.8,10.3-38,10.3-38l2.1.6s-11,35.1-15.3,56.9-2.9,31.6-2.9,31.6l-4.1-1.1"/>
        <path class="st7" d="M445.3,35.3l-.2.3c-.2.3-.4.5-.7.9-.6.8-1.5,1.9-2.5,3.3-2.1,2.8-4.8,6.8-7.6,11.4-2.7,4.6-4.9,8.9-6.4,12.1-.7,1.6-1.3,2.9-1.7,3.8-.2.4-.3.8-.5,1-.1.2-.2.4-.2.4v-.4c.2-.4.3-.6.5-1.1.4-.9.9-2.2,1.6-3.8,1.4-3.2,3.6-7.6,6.3-12.2,2.7-4.6,5.5-8.6,7.7-11.4s2-2.5,2.6-3.3c.3-.4.5-.6.7-.9.2-.2.3-.3.3-.3v.2h.1Z"/>
        <path class="st7" d="M416.9,83.8c-6.1-6.8-7.9-16.2-5.3-25,1.8-6.2,5.7-11.5,9.8-16.4.4-.4.8-.9,1.3-1,.8,0,1.4.5,2,1,4.4,5,5.7,12.2,5.4,18.9-.2,4.5-1.1,8.9-3.1,12.9s-5.9,7.7-10,9.6"/>
        <path class="st2" d="M416.9,83.8v-.4c0-.3.2-.6.3-1.1.3-.9.7-2.2,1.2-3.9,1-3.3,2.1-7.9,2.9-13.1.8-5.2,1.3-9.9,1.7-13.3.2-1.7.3-3,.4-4.1,0-.4,0-.8.1-1.1v-.4,1.5c0,1-.1,2.4-.3,4.1-.3,3.4-.7,8.2-1.6,13.4-.8,5.2-2,9.8-3,13.1-.5,1.6-1,3-1.3,3.9-.2.4-.3.8-.4,1,0,.2-.2.4-.2.4h.2,0Z"/>
        <g class="st4">
          <path d="M408.9,120.4c5.3-.4,10.7.9,15.5,3.1,4.9,2.2,9.4,5.1,13.8,8.1.4-3.4-1.6-6.7-3.5-9.6-1.4-2.2-2.9-4.4-4.7-6.2-1.8-1.9-4.1-3.4-6.6-4-3.1-.7-6.4,0-9,1.8s-4.3,3.8-5.5,6.7"/>
        </g>
        <path class="st7" d="M432.2,146.7s-.1,0-.3-.2c-.2-.2-.4-.4-.7-.7-.6-.6-1.5-1.4-2.6-2.4-.6-.5-1.2-1.1-1.8-1.6-.7-.6-1.4-1.2-2.2-1.8-1.6-1.2-3.3-2.6-5.3-3.6-2-1.1-4.1-1.8-6.1-1.8h-2.8c-.9.1-1.7.3-2.4.5-1.4.4-2.5,1-3.2,1.5-.7.4-1.1.7-1.1.7l.2-.2c.2-.1.4-.3.8-.6.7-.5,1.8-1.1,3.2-1.6.7-.2,1.5-.4,2.4-.6.9-.1,1.9-.1,2.9-.1,2,0,4.2.7,6.2,1.8s3.8,2.5,5.4,3.7c.8.6,1.5,1.2,2.2,1.8s1.3,1.1,1.8,1.7c1.1,1,2,1.9,2.5,2.5.3.3.5.5.7.7s.2.3.2.3h0Z"/>
        <path class="st7" d="M393.6,135.7l.6.3c.3.2.8.6,1.4,1.1,1.1,1,2.5,2.5,3.7,4.5s1.9,3.9,2.2,5.4c.2.7.3,1.3.3,1.7v.6s-.2-.9-.6-2.3c-.4-1.4-1.1-3.3-2.3-5.2-1.2-1.9-2.5-3.5-3.6-4.5s-1.8-1.6-1.8-1.6h0Z"/>
        <path class="st7" d="M381,97.2s.1,0,.4.2.6.4,1,.7c.5.3,1,.7,1.6,1.2s1.3,1,2.1,1.7c3,2.5,6.9,6.4,10.3,11.3,1.7,2.5,3.1,5,4.2,7.3s2,4.5,2.7,6.3,1.1,3.4,1.5,4.4c.2.5.3.9.4,1.2,0,.3.1.4.1.4,0,0,0-.1-.2-.4-.1-.3-.3-.7-.4-1.2-.4-1-.9-2.5-1.6-4.4-.7-1.8-1.6-4-2.8-6.3-1.1-2.3-2.6-4.8-4.2-7.2-3.4-4.9-7.2-8.8-10.2-11.3-.7-.6-1.4-1.2-2-1.7s-1.1-.9-1.6-1.2c-.4-.3-.7-.6-1-.8-.2-.2-.3-.3-.3-.3h0Z"/>
        <path class="st7" d="M424.6,119s-.3,0-.7-.3c-.2,0-.5-.3-.8-.4-.3-.2-.7-.3-1.1-.4-1.7-.6-4.2-1.1-6.9-.5-1.3.3-2.6.8-3.6,1.4s-1.9,1.2-2.6,1.9c-1.4,1.2-1.9,2.2-2,2.1,0,0,.1-.3.4-.7.3-.4.8-1,1.4-1.6.7-.6,1.5-1.3,2.6-2,1-.6,2.3-1.2,3.7-1.5,2.8-.7,5.4,0,7.1.6.4.2.8.3,1.1.5.3.2.6.3.8.5.4.3.7.4.7.4h-.1Z"/>
        <path class="st7" d="M443.6,87.6h-.4c-.3,0-.7.2-1.2.3-1.1.2-2.6.6-4.5,1.1s-4.1,1.2-6.5,2.1-5,2-7.6,3.5c-1.3.8-2.5,1.6-3.4,2.6-1,1-1.9,2-2.7,3-1.7,1.9-3.2,3.7-4.3,5.3-1.1,1.6-1.9,2.9-2.4,3.9s-.8,1.5-.8,1.5l.2-.4c.1-.3.3-.7.5-1.1.5-1,1.3-2.4,2.4-4s2.6-3.4,4.3-5.4c.8-1,1.8-2,2.7-3,1-1,2.2-1.9,3.5-2.7,2.6-1.5,5.2-2.6,7.7-3.5,2.4-.9,4.7-1.5,6.6-2s3.4-.8,4.5-1c.5,0,.9-.2,1.2-.2h.4-.2Z"/>
        <path class="st7" d="M408.6,115.5v-3.2c0-2,0-4.7-.4-7.6-.3-3-.9-5.6-1.4-7.5-.2-.9-.4-1.7-.5-2.3-.1-.5-.2-.8-.2-.8,0,0,.1.3.3.8.2.5.4,1.3.6,2.2.5,1.9,1.1,4.6,1.5,7.6.3,3,.3,5.7.3,7.7s0,1.8-.1,2.3c0,.5,0,.9-.1.8h0Z"/>
        <path class="st7" d="M412.3,93.3c.5-3.7,0-7.5-1-11.1-2.9-9.9-10.4-18.2-19.9-22.2,5.1,12.2,10.1,24.5,15.2,36.7l1.6,6.3c2.5-2.8,3.6-6,4.1-9.7h0Z"/>
        <g class="st4">
          <path d="M412.3,93.3c.5-3.7,0-7.5-1-11.1-2.9-9.9-10.4-18.2-19.9-22.2,5.1,12.2,10.1,24.5,15.2,36.7l1.6,6.3c2.5-2.8,3.6-6,4.1-9.7h0Z"/>
        </g>
      </g>
    </g>
    <g>
      <g>
        <ellipse class="st2" cx="191.6" cy="410.1" rx="29" ry="45.2" transform="translate(-233.6 254.9) rotate(-44.9)"/>
        <path class="st7" d="M177.6,424.3c-16.1-16.1-21.8-37-14.1-49.2-1.3.8-2.6,1.8-3.7,2.9-11.3,11.4-6.2,34.9,11.4,52.5,17.6,17.6,41.1,22.7,52.4,11.4s1.9-2.1,2.6-3.3c-12.2,7.3-32.8,1.6-48.8-14.3h.2Z"/>
      </g>
      <g>
        <path class="st7" d="M195.5,402.6l14.2-15.2,1.7,1.7s-12.1,14-12.2,17.3l-3.7-3.9h0Z"/>
        <polygon class="st9" points="172.3 393.9 152.8 423 182.4 452.6 211.8 430.2 172.3 393.9"/>
        <path class="st9" d="M182.6,452.4c-2.7,2.6-11.4-1.9-19.5-10.2-8.1-8.2-12.5-17-9.8-19.7,2.7-2.6,11.4,1.9,19.5,10.2,8.1,8.2,12.5,17,9.8,19.7Z"/>
        <g class="st6">
          <path d="M182.6,452.4c-2.7,2.6-11.4-1.9-19.5-10.2-8.1-8.2-12.5-17-9.8-19.7,2.7-2.6,11.4,1.9,19.5,10.2,8.1,8.2,12.5,17,9.8,19.7Z"/>
        </g>
        <path class="st9" d="M212.6,432.4c-2.4,2.2-14.8.3-28.3-12.1s-21.1-21.7-14.2-29c5.7-6,16.9-1.4,30.4,11s20.1,22.8,12.1,30.1Z"/>
        <path class="st2" d="M182.4,452.6s.2-.2.5-.4c.3-.3.8-.7,1.4-1.2,1.3-1,3.1-2.5,5.4-4.3,4.7-3.7,11.3-8.9,19.2-15.1h0c.6-.7.6-1.7.4-2.7-.2-1-.6-2-1-3-.9-1.9-2.1-3.8-3.4-5.6-2.7-3.7-5.9-7.2-9.5-10.5-3.9-3.6-8-6.9-12.2-9.4-2.1-1.3-4.2-2.4-6.4-3.2-1.1-.4-2.2-.7-3.2-.8-1.1-.1-2.2,0-2.9.6h0c-5.3,7.8-9.7,14.3-12.9,18.9-1.6,2.3-2.8,4-3.7,5.3-.4.6-.7,1-1,1.4-.2.3-.3.5-.4.5s0-.2.3-.5c.2-.4.5-.8.9-1.4.8-1.3,2-3.1,3.5-5.4,3.1-4.6,7.5-11.2,12.7-19h0c.4-.4,1-.7,1.6-.8.6-.1,1.2,0,1.7,0,1.1.1,2.3.5,3.4.9,2.2.8,4.3,1.9,6.5,3.2,4.2,2.6,8.3,5.8,12.2,9.5,3.6,3.4,6.9,6.9,9.5,10.6,1.3,1.9,2.5,3.8,3.5,5.7.5,1,.8,2,1,3.1.2,1,.2,2.3-.5,3.1h0c-7.9,6.1-14.6,11.3-19.3,14.9-2.3,1.8-4.2,3.2-5.5,4.2-.6.5-1.1.8-1.5,1.1-.3.2-.5.4-.5.4h.2Z"/>
      </g>
    </g>
  </g>
  <g id="Texts">
    <g>
      <g>
        <path class="st9" d="M271.9,322.7h-53.7v-26.3l51.2-124.5h30.7v124.5h13.3v26.3h-13.3v33.4h-28.1v-33.4h-.1ZM271.9,296.4v-71.8h-.5l-27.6,71.8h28.1Z"/>
        <g class="st6">
          <path d="M271.9,322.7h-53.7v-26.3l51.2-124.5h30.7v124.5h13.3v26.3h-13.3v33.4h-28.1v-33.4h-.1ZM271.9,296.4v-71.8h-.5l-27.6,71.8h28.1Z"/>
        </g>
        <path class="st9" d="M259.1,322.7h-53.7v-26.3l51.2-124.5h30.7v124.5h13.3v26.3h-13.3v33.4h-28.1v-33.4h-.1ZM259.1,296.4v-71.8h-.5l-27.6,71.8h28.1Z"/>
      </g>
      <g>
        <path class="st9" d="M335.9,346.6c-7.3-8.1-11-19.5-11-34.2v-96.8c0-14.7,3.7-26.1,11-34.2,7.3-8.1,17.9-12.1,31.7-12.1s24.4,4,31.7,12.1c7.3,8.1,11,19.5,11,34.2v96.8c0,14.7-3.7,26.1-11,34.2s-17.9,12.1-31.7,12.1-24.4-4-31.7-12.1ZM382.2,314.3v-100.5c0-12.1-4.9-18.2-14.6-18.2s-14.6,6.1-14.6,18.2v100.5c0,12.1,4.9,18.2,14.6,18.2s14.6-6.1,14.6-18.2Z"/>
        <g class="st6">
          <path d="M399.3,181.4c-7.3-8.1-17.9-12.1-31.7-12.1s-24.4,4-31.7,12.1c-7.3,8.1-11,19.5-11,34.2v96.8c0,14.7,3.7,26.1,11,34.2s17.9,12.1,31.7,12.1,24.4-4,31.7-12.1c7.3-8.1,11-19.5,11-34.2v-96.8c0-14.7-3.7-26.1-11-34.2ZM382.2,314.3c0,12.1-4.9,18.2-14.6,18.2s-14.6-7.6-14.6-18.2v-100.5c0-11,4.9-18.2,14.6-18.2s14.6,6.1,14.6,18.2v100.5Z"/>
        </g>
        <path class="st9" d="M323.1,346.6c-7.3-8.1-11-19.5-11-34.2v-96.8c0-14.7,3.7-26.1,11-34.2,7.3-8.1,17.9-12.1,31.7-12.1s24.4,4,31.7,12.1c7.3,8.1,11,19.5,11,34.2v96.8c0,14.7-3.7,26.1-11,34.2s-17.9,12.1-31.7,12.1-24.4-4-31.7-12.1ZM369.4,314.3v-100.5c0-12.1-4.9-18.2-14.6-18.2s-14.6,6.1-14.6,18.2v100.5c0,12.1,4.9,18.2,14.6,18.2s14.6-6.1,14.6-18.2Z"/>
      </g>
      <g>
        <path class="st9" d="M473.2,322.7h-53.7v-26.3l51.2-124.5h30.7v124.5h13.3v26.3h-13.3v33.4h-28.1v-33.4h-.1ZM473.2,296.4v-71.8h-.5l-27.6,71.8h28.1Z"/>
        <g class="st6">
          <path d="M473.2,322.7h-53.7v-26.3l51.2-124.5h30.7v124.5h13.3v26.3h-13.3v33.4h-28.1v-33.4h-.1ZM473.2,296.4v-71.8h-.5l-27.6,71.8h28.1Z"/>
        </g>
        <path class="st9" d="M460.4,322.7h-53.7v-26.3l51.2-124.5h30.7v124.5h13.3v26.3h-13.3v33.4h-28.1v-33.4h-.1ZM460.4,296.4v-71.8h-.5l-27.6,71.8h28.1Z"/>
      </g>
    </g>
    <g>
      <path class="st2" d="M230.1,392.2c-.4-.4-.7-1-.7-1.6s.2-1.1.6-1.6c.4-.4.9-.7,1.6-.7s1.2.2,1.6.7c.4.4.6,1,.6,1.6s-.2,1.2-.7,1.6c-.4.4-1,.6-1.5.6s-1.1-.2-1.5-.7Z"/>
      <path class="st2" d="M237.5,392.2c-.4-.4-.7-1-.7-1.6s.2-1.1.6-1.6c.4-.4.9-.7,1.6-.7s1.2.2,1.6.7c.4.4.6,1,.6,1.6s-.2,1.2-.7,1.6c-.4.4-1,.6-1.5.6s-1.1-.2-1.5-.7Z"/>
      <path class="st2" d="M244.8,392.2c-.4-.4-.7-1-.7-1.6s.2-1.1.6-1.6c.4-.4.9-.7,1.6-.7s1.2.2,1.6.7c.4.4.6,1,.6,1.6s-.2,1.2-.7,1.6c-.4.4-1,.6-1.5.6s-1.1-.2-1.5-.7Z"/>
      <path class="st2" d="M251.1,388.8h5.8c.4,0,.7-.1.9-.3s.4-.5.4-.8,0-.3-.1-.6l-2.3-6.3,3.3-1.2,3,8.3c.3.7.7,1,1.3,1h.1c.2,0,.2,0,.2.2v3.2c0,.2,0,.2-.2.2h-.3c-.7,0-1.3-.1-1.8-.4-.5-.3-.9-.6-1.2-1-.5.5-1,.9-1.5,1.1-.5.2-1.1.3-1.8.3h-5.8v-3.7Z"/>
      <path class="st2" d="M263.2,392.3v-3.2c0-.2,0-.2.2-.2h1c.3,0,.6-.1.8-.3.2-.2.3-.5.3-.8v-4.3h2.8v4.5c0,1.3-.3,2.4-1,3.3-.7.9-1.7,1.3-2.9,1.3h-1c-.2,0-.2,0-.2-.2ZM267.4,391.3c-.7-.9-1-2-1-3.3v-4.5h2.8v4.3c0,.3.1.6.3.8.2.2.5.3.8.3s.6-.1.8-.3c.2-.2.3-.5.3-.8v-4.3h2.8v4.5c0,1.3-.3,2.4-1,3.3s-1.7,1.3-2.9,1.3-2.2-.4-2.9-1.3ZM269.3,378.3h3.1v3.1h-3.1v-3.1ZM271.6,373.9h3.1v3.1h-3.1v-3.1ZM273.1,391.3c-.7-.9-1-2-1-3.3v-4.5h2.8v4.3c0,.3.1.6.3.8.2.2.5.3.8.3s.6-.1.8-.3c.2-.2.3-.5.3-.8v-5h2.8v5.3c0,1.3-.3,2.4-1,3.3-.7.9-1.7,1.3-2.9,1.3s-2.2-.4-2.9-1.3ZM273.7,378.3h3.1v3.1h-3.1v-3.1ZM278.8,391.2c-.7-.9-1-2-1-3.3v-5.2h2.8v5c0,.3.1.6.3.8.2.2.5.3.8.3h1c.2,0,.2,0,.2.2v3.2c0,.2,0,.2-.2.2h-1c-1.2,0-2.2-.4-2.9-1.3Z"/>
      <path class="st2" d="M282.5,392.3v-3.2c0-.2,0-.2.2-.2h1.3c.3,0,.6-.1.8-.3.2-.2.3-.5.3-.8v-5h3.5v5.2c0,.8-.2,1.6-.6,2.3-.4.7-1,1.3-1.7,1.7-.7.4-1.5.6-2.3.6h-1.3c-.2,0-.2,0-.2-.2ZM285.3,377.5h3.1v3.1h-3.1v-3.1Z"/>
      <path class="st2" d="M294.8,383.4h3.5v2.7c0,.7.3,1.4.8,1.9s1.1.8,1.9.8h7.7c.5,0,.9-.2,1.2-.5.3-.3.5-.7.5-1.2v-3.8h3.5v4.3c0,.3.1.6.3.8.2.2.5.3.8.3h1c.2,0,.2,0,.2.2v3.2c0,.2,0,.2-.2.2h-1c-1.2,0-2.2-.4-3-1.3-.9.9-1.9,1.3-3.2,1.3h-7.7c-1.1,0-2.2-.3-3.1-.8-.9-.6-1.7-1.3-2.2-2.2-.6-.9-.8-2-.8-3.1v-2.9ZM300.6,380.3h3.1v3.1h-3.1v-3.1ZM304.9,380.3h3.1v3.1h-3.1v-3.1Z"/>
      <path class="st2" d="M315.7,392.3v-3.2c0-.2,0-.2.2-.2h5.9c.3,0,.6-.1.8-.3.2-.2.3-.5.3-.8v-.2h-1.2c-.9,0-1.7-.2-2.5-.6s-1.4-1-1.8-1.7c-.4-.7-.7-1.5-.7-2.4s.2-1.7.7-2.5c.5-.8,1.1-1.4,1.8-1.8s1.6-.7,2.4-.7,1.7.2,2.4.7c.7.4,1.3,1,1.7,1.8.4.8.6,1.6.6,2.5v5.1c0,.8-.2,1.6-.6,2.3-.4.7-1,1.3-1.7,1.7s-1.5.6-2.3.6h-6c-.2,0-.2,0-.2-.2ZM323.2,384.2v-1.6c0-.4-.1-.8-.4-1.1-.3-.3-.6-.4-1.1-.4s-.8.1-1.1.4c-.3.3-.4.6-.4,1.1s.1.8.4,1.1c.3.3.7.5,1.1.5h1.5ZM320.3,372.8h3.1v3.1h-3.1v-3.1Z"/>
      <path class="st2" d="M330.6,391.9c-.7-.4-1.3-1-1.7-1.7-.4-.7-.6-1.5-.6-2.3v-11.8h3.5v11.6c0,.3.1.6.3.8.2.2.5.3.8.3h1.3c.2,0,.2,0,.2.2v3.2c0,.2,0,.2-.2.2h-1.4c-.8,0-1.6-.2-2.3-.6Z"/>
      <path class="st2" d="M334.1,392.3v-3.2c0-.2,0-.2.2-.2h2.6c.3,0,.6-.1.8-.3.2-.2.3-.5.3-.8v-5h3.5v5.2c0,.8-.2,1.6-.6,2.3-.4.7-1,1.3-1.7,1.7s-1.5.6-2.3.6h-2.7c-.2,0-.2,0-.2-.2ZM334.3,394.6h3.1v3.1h-3.1v-3.1ZM338.7,394.6h3.1v3.1h-3.1v-3.1Z"/>
      <path class="st2" d="M348,394.9c.5-.4.8-.8,1-1.3.2-.5.2-1.2.2-2v-8.1h3.5v8.1c0,1.4-.2,2.5-.5,3.4s-.9,1.7-1.8,2.3c-.8.7-2,1.4-3.6,2.2l-1.3-2.9c1.2-.7,2-1.2,2.5-1.6ZM351.1,391.3c-.6-.8-.9-2-.9-3.3v-4.5h2.5v4.3c0,.3.1.6.3.8.2.2.5.3.8.3h1c.2,0,.2,0,.2.2v3.2c0,.2,0,.2-.2.2h-1c-1.2,0-2.1-.4-2.7-1.3Z"/>
      <path class="st2" d="M354.6,392.3v-3.2c0-.2,0-.2.2-.2h10c.5,0,.9-.2,1.3-.5s.5-.8.5-1.3-.2-1-.5-1.3c-.4-.4-.8-.6-1.3-.6s-.5,0-.7.2c-.3.1-.6.3-1.1.6l-5.8,3.4-1.2-3.2,5.6-3.3c.7-.4,1.2-.7,1.7-.9.5-.2,1-.3,1.6-.3,1,0,1.9.2,2.7.7.8.5,1.5,1.1,2,2,.5.8.7,1.7.7,2.7s-.2,1.9-.7,2.7c-.5.8-1.1,1.5-2,2-.8.5-1.7.7-2.7.7h-10c-.2,0-.2,0-.2-.2ZM358.2,384.4c0-.3.1-.7.1-1.2v-7h3.5v4.1c0,.8,0,1.4-.1,1.9,0,.5-.2.8-.5,1l-3.6,2c.3-.2.5-.4.6-.7ZM363.6,376.7h3.1v3.1h-3.1v-3.1ZM368.5,391.2c-.7-.9-1-2-1-3.3v-.8h2.8v.6c0,.3.1.6.3.8.2.2.5.3.8.3h1c.2,0,.2,0,.2.2v3.2c0,.2,0,.2-.2.2h-1c-1.3,0-2.2-.4-2.9-1.3Z"/>
      <path class="st2" d="M372.2,392.3v-3.2c0-.2,0-.2.2-.2h1.3c.3,0,.6-.1.8-.3.2-.2.3-.5.3-.8v-5h3.5v5.2c0,.8-.2,1.6-.6,2.3-.4.7-1,1.3-1.7,1.7-.7.4-1.5.6-2.3.6h-1.3c-.2,0-.2,0-.2-.2ZM374.9,377.5h3.1v3.1h-3.1v-3.1Z"/>
      <path class="st2" d="M384.4,388.8h6.1c.4,0,.6-.1.9-.3.2-.2.3-.5.3-.8s0-.4-.2-.6c-.1-.2-.4-.4-.7-.6l-5.1-3.5,2-2.9,5.7,3.9c.6.5,1.1,1,1.4,1.5.3.6.5,1.2.5,2s-.2,1.7-.7,2.5c-.4.7-1.1,1.3-1.8,1.8-.8.4-1.6.6-2.5.6h-5.8v-3.7Z"/>
      <path class="st2" d="M395.9,394.9c.5-.4.8-.8,1-1.3s.2-1.2.2-2v-8.1h3.5v8.1c0,1.4-.2,2.5-.5,3.4-.3.9-.9,1.7-1.8,2.3-.8.7-2,1.4-3.6,2.2l-1.3-2.9c1.2-.7,2-1.2,2.5-1.6Z"/>
      <path class="st2" d="M407.7,394.8c.7-.4,1.2-.8,1.4-1.1s.4-.7.4-1.2h-1.6c-1,0-1.9-.2-2.7-.7-.8-.4-1.5-1-1.9-1.8-.5-.8-.7-1.6-.7-2.6s.2-1.9.7-2.7c.5-.8,1.1-1.5,1.9-1.9.8-.5,1.7-.7,2.7-.7s1.8.2,2.6.7c.8.5,1.4,1.1,1.8,1.9s.7,1.7.7,2.7v3.6c0,1.5-.2,2.7-.7,3.7s-1.2,1.7-2.2,2.4c-1,.7-2.5,1.5-4.5,2.3l-1.1-3.1c1.4-.6,2.5-1.1,3.2-1.5ZM409.5,389.1v-1.6c0-.5-.1-.9-.5-1.2-.3-.3-.7-.5-1.1-.5s-.9.2-1.2.5c-.3.3-.5.7-.5,1.2s.2.9.5,1.2.7.5,1.2.5h1.6ZM412.8,388.8h1.2c.2,0,.2,0,.2.2v3.2c0,.2,0,.2-.2.2h-1.2v-3.7Z"/>
      <path class="st2" d="M413.7,392.3v-3.2c0-.2,0-.2.2-.2h1.6c.3,0,.6-.1.8-.3s.3-.5.3-.8v-1.6h2.8v1.8c0,1.3-.3,2.4-1,3.3-.7.9-1.7,1.3-2.9,1.3h-1.6c-.2,0-.2,0-.2-.2ZM419.2,391.8c-.8-.5-1.4-1.1-1.8-1.9s-.7-1.7-.7-2.7v-1.6h-1.5v-3.5h6.6c1,0,1.9.2,2.7.7s1.5,1,1.9,1.8c.5.8.7,1.6.7,2.6s-.2,1.8-.7,2.7c-.5.8-1.1,1.5-1.9,1.9-.8.5-1.7.7-2.7.7s-1.8-.2-2.6-.7ZM422.9,388.4c.3-.3.5-.7.5-1.2s-.2-.8-.5-1.1c-.3-.3-.7-.5-1.2-.5h-1.6v1.6c0,.5.2.9.5,1.2.3.3.7.5,1.2.5s.9-.2,1.2-.5Z"/>
      <path class="st2" d="M435.8,391.1c-.8-.5-1.5-1.1-2-1.9-.5-.8-.7-1.7-.7-2.7s.2-1.8.7-2.6c.5-.8,1.1-1.4,2-1.8.8-.4,1.7-.7,2.7-.7h1.6v-1.6h3.5v6.6c0,1-.2,1.9-.7,2.7s-1,1.5-1.8,1.9c-.8.5-1.6.7-2.6.7s-1.9-.2-2.7-.7ZM439.6,387.6c.3-.3.5-.7.5-1.2v-1.6h-1.6c-.5,0-.9.1-1.2.4-.3.3-.5.7-.5,1.1s.2.9.5,1.2.7.5,1.2.5.8-.2,1.1-.5ZM442.4,391.9c-.6-.4-1.1-1-1.4-1.7-.3-.7-.5-1.5-.5-2.3v-4.5h3v4.3c0,.3.1.6.3.8.2.2.5.3.8.3h1c.2,0,.2,0,.2.2v3.2c0,.2,0,.2-.2.2h-1c-.8,0-1.6-.2-2.2-.6Z"/>
      <path class="st2" d="M445.4,392.3v-3.2c0-.2,0-.2.2-.2h5.1c1.3,0,2.3-.4,3.2-1.2l2.4-2.1-3.4-1.6c-.3-.1-.6-.2-.7-.2s-.4,0-.6.1c-.2,0-.4.2-.5.4l-2.2,2.5-2.4-2.1,2.2-2.7c.5-.5,1-.9,1.6-1.2s1.3-.4,1.9-.4.8,0,1.2.2.6.2,1,.4l5.2,2.4c0,0,.2,0,.4,0h2.6v3.4h-2.8l-.4.4v.6c0,.3.1.6.3.8s.5.3.8.3h2.8c.2,0,.2,0,.2.2v3.2c0,.2,0,.2-.2.2h-2.8c-1,0-1.8-.3-2.4-.8-.6-.5-1.1-1.2-1.3-2.1l-.9.8c-.7.7-1.6,1.2-2.6,1.6-1,.4-2,.5-3,.5h-4.6c-.2,0-.2,0-.2-.2Z"/>
      <path class="st2" d="M462.9,392.3v-3.2c0-.2,0-.2.2-.2h12.5c.2,0,.2,0,.2.2v3.2c0,.2,0,.2-.2.2h-12.5c-.2,0-.2,0-.2-.2ZM464.8,384.5c.5-.8,1.1-1.4,1.9-1.9.8-.5,1.7-.7,2.7-.7s1.9.2,2.7.7c.8.5,1.5,1.1,1.9,1.9.5.8.7,1.7.7,2.6s-.2,1.9-.7,2.6c-.5.8-1.1,1.4-1.9,1.8-.8.4-1.7.6-2.7.6s-1.9-.2-2.7-.6c-.8-.4-1.5-1-1.9-1.8-.5-.8-.7-1.7-.7-2.6s.2-1.9.7-2.6ZM468.2,388.4c.3.3.7.5,1.2.5s.9-.2,1.2-.5.5-.7.5-1.1-.2-.8-.5-1.1-.7-.5-1.2-.5-.9.2-1.2.5c-.3.3-.5.7-.5,1.1s.2.8.5,1.1ZM467.8,376.9h3.1v3.1h-3.1v-3.1Z"/>
      <path class="st2" d="M475.4,392.3v-3.2c0-.2,0-.2.2-.2h1c.3,0,.6-.1.8-.3.2-.2.3-.5.3-.8v-4.3h2.8v4.5c0,1.3-.3,2.4-1,3.3-.7.9-1.7,1.3-2.9,1.3h-1c-.2,0-.2,0-.2-.2ZM481,391.7c-.8-.6-1.4-1.3-1.9-2.3-.4-1-.6-2-.6-3.2v-2.8h2.8v3.3c0,.6.2,1.1.6,1.5.4.4.9.6,1.5.6h6.3c.5,0,.9-.2,1.3-.5.3-.4.5-.8.5-1.3s-.2-1-.5-1.3c-.4-.4-.8-.6-1.3-.6s-.5,0-.7.2c-.3.1-.6.3-1.1.6l-6.6,4-1.3-3.2,6.5-3.8c.7-.4,1.2-.7,1.7-.9s1-.3,1.6-.3c1,0,1.9.2,2.7.7s1.5,1.1,2,2c.5.8.7,1.7.7,2.7s-.2,1.9-.7,2.7c-.5.8-1.1,1.5-2,2s-1.7.7-2.7.7h-5.8c-1.1,0-2.1-.3-2.9-.8Z"/>
    </g>
  </g>
  <g id="Character">
    <g>
      <g>
        <ellipse class="st2" cx="547.6" cy="251.9" rx="24.4" ry="76.4" transform="translate(-39 113.2) rotate(-11.4)"/>
        <path class="st7" d="M564.3,248.6c-7.6-37.7-22.8-67.1-35.4-70,1.1-.9,2.3-1.5,3.6-1.7,13.2-2.7,30.7,28.7,39,70.1s4.4,77.1-8.8,79.7c-1.2.2-2.4.2-3.6,0,10.2-8,12.7-40.7,5.2-78h0Z"/>
      </g>
      <g>
        <g>
          <g>
            <path class="st2" d="M696.2,177.3l14.1-20.6s25.7,7.4,28.7,3.9l-39-28.9-23.4,31.3,19.5,14.4h.1Z"/>
            <path class="st5" d="M697,149.4c-.6-.8-.5-2,.2-2.6s2-.5,2.6.2c.6.8.5,2.2-.3,2.8-.8.5-2.3.4-2.7-.5"/>
            <path class="st7" d="M700,131.6l-2.2,3.2,38.3,26.5s2.3.5,3-.8l-39-28.9h0Z"/>
            <path class="st3" d="M710.9,157.3c0-.2-.8-1-1.2-2.3-.5-1.3-.4-2.5-.6-2.5s-.8,1.3,0,2.8c.6,1.6,1.9,2.2,2,2h-.2Z"/>
            <path class="st3" d="M716.2,158.6c.2-.2-.4-1.1-.5-2.4,0-1.3.4-2.3.2-2.4-.2-.2-1.1.9-1,2.5,0,1.6,1.1,2.5,1.3,2.3h0Z"/>
            <path class="st3" d="M722.2,155.4c0-.2-1.1.6-1.4,2-.3,1.4.3,2.5.5,2.4.2,0,0-1.1.3-2.2.2-1.2.8-2,.6-2.2h0Z"/>
            <path class="st3" d="M707.1,161.6c0-.2-1-.6-2-1.5-1-.8-1.6-1.8-1.8-1.7-.2,0,0,1.4,1.3,2.4,1.2,1,2.6,1.1,2.6.9h0Z"/>
          </g>
          <path class="st2" d="M682.7,261.2l14.3-20.6s25.7,7.6,28.7,4.1l-38.9-29.1-23.5,31.1,19.5,14.5h0Z"/>
          <path class="st5" d="M683.6,233.3c-.6-.8-.5-2,.3-2.6.7-.6,2-.5,2.6.2.6.8.5,2.2-.3,2.8-.8.5-2.3.3-2.7-.5"/>
          <path class="st7" d="M686.8,215.6l-2.3,3.2,38.1,26.7s2.3.5,3-.8l-38.9-29.1h.1Z"/>
          <path class="st3" d="M697.4,241.3c0-.2-.7-1-1.2-2.3s-.4-2.5-.6-2.5-.8,1.3-.2,2.8c.6,1.6,1.9,2.2,2,2Z"/>
          <path class="st3" d="M702.8,242.7c.2-.2-.4-1.1-.4-2.4s.4-2.3.2-2.4c-.2-.2-1.1.9-1,2.4,0,1.6,1.1,2.5,1.3,2.3h0Z"/>
          <path class="st3" d="M708.7,239.5c0-.2-1.1.6-1.4,2-.3,1.4.3,2.5.5,2.4.2,0,0-1.1.3-2.2.2-1.2.8-2,.6-2.2h0Z"/>
          <path class="st3" d="M693.6,245.6c0-.2-1-.6-2-1.5s-1.6-1.8-1.8-1.8,0,1.4,1.3,2.4c1.2,1,2.5,1.1,2.6.9h0Z"/>
          <path class="st2" d="M535.4,276.1c1.3,0,119.9-34.2,128.2-41.6,8.2-7.4,41.9-66.2,41.9-66.2l-23.9-19.5-41.6,54.2-73,6.6s-30.8-2.1-36.1,8.9l-.5,16.5,5.1,41.1h-.1Z"/>
          <path class="st2" d="M535.4,276.1c1.8,0,54.7,59,71.3,62.3,16.6,3.4,24.9-8.1,30.6-15,7.2-8.7,56.4-71.5,56.4-71.5l-24.7-20.4-54.1,57.5-32.5-44.8-28.3-2.7-17.2,15.3-1.5,19.1v.2Z"/>
          <path class="st7" d="M610.2,294.6l.2-.2c.2-.2.3-.4.6-.7.6-.6,1.3-1.5,2.3-2.6,2-2.2,4.9-5.4,8.5-9.4s7.9-8.6,12.7-13.9c2.4-2.6,4.9-5.3,7.5-8.2,2.6-2.8,5.4-5.7,8.2-8.7,6.8-7.1,13.2-13.9,18.7-19.7l.2-.2h.2c7.3,6.2,13.4,11.4,17.8,15,2.1,1.8,3.8,3.2,5,4.2.5.5,1,.8,1.3,1.1s.4.4.4.4c0,0-.2-.1-.5-.3-.3-.3-.8-.6-1.4-1.1-1.2-1-2.9-2.4-5.1-4.1-4.4-3.6-10.6-8.7-17.9-14.7h.3c-5.5,5.8-11.9,12.5-18.6,19.7-2.8,3-5.6,5.9-8.2,8.6-2.6,2.8-5.1,5.5-7.5,8.1-4.8,5.2-9.1,9.8-12.8,13.8-3.6,3.9-6.6,7-8.7,9.3-1,1.1-1.8,1.9-2.4,2.5-.3.3-.5.5-.6.6s-.2.2-.2.2v.3h0Z"/>
          <path class="st7" d="M609.5,254.2s-.5.2-1.5.5c-1.1.3-2.5.8-4.2,1.3-3.6,1.1-8.5,2.6-14,4.4-1.4.5-2.7.9-4,1.3s-2.5.8-3.6,1.3c-2.2,1-3.7,2.8-4.5,4.5s-1.1,3.2-1.3,4.2-.3,1.6-.3,1.6v-1.6c0-1,.4-2.6,1.1-4.3.7-1.7,2.3-3.6,4.6-4.7,1.1-.6,2.4-1,3.7-1.4s2.6-.9,4-1.3c5.4-1.8,10.4-3.2,14-4.2,1.8-.5,3.3-.9,4.3-1.2s1.6-.4,1.6-.4h.1Z"/>
        </g>
        <path class="st7" d="M519.4,225.4s0-.2.2-.5c0-.2.2-.4.3-.6.2-.2.3-.4.5-.7.8-1,2.2-2.4,4.2-3.8,3.9-2.8,10-5.4,16.9-7.3,7-1.9,13.5-2.9,18.2-3.2,2.4-.2,4.3-.1,5.6,0,.7,0,1.2,0,1.5.1h.5-2c-1.3,0-3.2,0-5.6.2-4.7.4-11.2,1.4-18.1,3.3-6.9,1.9-13,4.4-16.9,7.1-2,1.3-3.4,2.6-4.2,3.6-.2.2-.4.5-.6.7,0,.2-.3.4-.4.5-.2.3-.3.4-.3.4l.2.2h0Z"/>
        <path class="st7" d="M568.5,308.9s-.2,0-.4-.3c-.3-.2-.7-.5-1.1-.9-1-.8-2.4-1.9-4.1-3.2-3.5-2.7-8.4-6.3-13.8-10.2-5.5-3.9-10.2-7.8-13.4-10.7-1.6-1.5-2.9-2.7-3.8-3.6-.4-.4-.7-.7-1-1s-.3-.4-.3-.4l.4.3c.3.3.6.6,1.1.9.9.8,2.2,2,3.9,3.4,3.3,2.9,8,6.7,13.5,10.6,5.4,3.9,10.3,7.5,13.7,10.3s3.1,2.5,4,3.4c.4.4.8.7,1.1.9.2.2.4.3.3.4h-.1Z"/>
      </g>
    </g>
    <g>
      <g>
        <ellipse class="st2" cx="178" cy="258.4" rx="80.4" ry="25.7" transform="translate(-126.4 334.6) rotate(-69.5)"/>
        <path class="st7" d="M161.2,252.4c14.2-37.9,34.9-65.9,48.5-66.8-1-1.1-2.2-1.9-3.5-2.4-13.3-5-36.7,24.7-52.2,66.3-15.6,41.6-17.4,79.3-4.2,84.3,1.2.4,2.4.6,3.8.5-9.3-10-6.4-44.4,7.6-81.9h0Z"/>
        <g>
          <path class="st0" d="M22.3,158.8s-3.5-9-5.1-12.3c-1.5-3.3-1.2-13.2-.2-15.1,1-1.9,0-3.2,0-3.2,0,0-5.2-9.7-2.8-12.1l1.4-.2s5.2,10.4,5.4,10.6,1.3.3,1.7-1.6c.4-1.8-.5-7.2-.5-7.2,0,0-2-3.4-2.1-5.8,0-.9.7-2.1,1.4-2.7l.7-.5s4.4,7.9,4.6,9.9c.2,1.9,1.1,6.1,1.1,6.1l.6-.5v-9.7s-2.1-8.2-.5-10c1.7-1.8,1.8-.3,1.8-.3,0,0,3.1,8.4,3.4,10.5,0,.9.2,9.2.2,9.2l1.3-.6.5-7.8s-1.6-7.8.8-8.5h1.9s1.8,10.2,2,10.6-1.4,12.1-1.4,12.1l.5,1.1,1.4-1.9s.6-1.8,3.3-3.3,3.9-.4,3.9-.4l-3.4,6.1s-3.1,7.1-4.4,8.7-5.6,5.5-6.3,5.9,0,3.5,0,3.5l1.1,2.2-12.6,6.9.3.3h0Z"/>
          <path class="st1" d="M36,135c0,.1-1.1,0-2.8.5-1.7.4-4,1.3-5.9,3.1s-3.1,4-3.6,5.6c-.5,1.7-.6,2.8-.7,2.7,0,0-.1-1.1.3-2.9.4-1.7,1.5-4.1,3.6-6,2.8-2.2,5.1-3.1,6.2-3.1,1.8-.3,2.9-.1,2.9,0h0Z"/>
          <path class="st1" d="M36.5,123.8c0,.2-4.1-.5-8.9.8-4.9,1.2-8.1,3.8-8.2,3.6,0,0,.7-.8,2.1-1.6,1.4-.9,3.5-1.9,6-2.5s4.8-.7,6.4-.6c1.7,0,2.7.4,2.6.4h0Z"/>
          <path class="st0" d="M22.3,158.8c.3.8,17.6,52.9,25,58.5,7.4,5.6,56.6,20,56.6,20l7.7-26.2-48.1-15.1-29.9-50-11.4,12.7h.1Z"/>
        </g>
        <polygon class="st9" points="114.8 204 77.7 197.7 69.8 230 112.7 239.8 114.8 204"/>
        <g>
          <g>
            <path class="st0" d="M138.2,206.6l-2.2-57c0-14.2-8.4-26-22.6-25.5h-1.3c-13.2,1.3-23.2,12.4-23,25.7,0,12.3.4,25.9,1.1,32.4,1.4,13.5,15.2,14.4,15.2,14.4l4.2,16.9,4.8,1.6h0l23.8-8.5Z"/>
            <path class="st1" d="M105.3,196.6s8.6-.3,17.2-6.8c0,0-2.5,10.9-16.1,10.9l-1-4.1h0Z"/>
            <path class="st2" d="M95.9,160.8c0,1,1,1.8,2,1.8s1.9-.9,1.8-1.9c0-1-1-1.8-2-1.8s-1.9.9-1.8,1.9Z"/>
            <path class="st2" d="M92.5,155.5c.3.2,1.6-1,3.7-1.2s3.7.7,3.9.4c0-.1-.2-.6-.9-1-.7-.4-1.9-.8-3.2-.7-1.3.1-2.3.7-2.9,1.3s-.8,1-.6,1.1h0Z"/>
            <path class="st2" d="M112.3,160.4c.3.2,1.6-1,3.7-1.2s3.7.7,3.9.4c0-.1-.2-.6-.9-1-.7-.4-1.9-.8-3.2-.7-1.3.1-2.3.7-2.9,1.3s-.8,1-.6,1.1h0Z"/>
            <path class="st2" d="M106.9,170.8c0-.1-1.3-.2-3.4-.3-.5,0-1.1,0-1.2-.4-.2-.4,0-1,.2-1.6.4-1.3.8-2.7,1.2-4.2,1.7-6,2.8-10.9,2.6-10.9s-1.8,4.7-3.4,10.7c-.4,1.5-.8,2.9-1.1,4.2,0,.6-.4,1.3,0,2.1s.6.6.9.7h.9c2.1,0,3.4-.2,3.4-.3h0Z"/>
            <path class="st2" d="M110.6,154.9c.3.5,2.3-.2,4.8-.5s4.5,0,4.7-.7c0-.3-.4-.7-1.3-1.1-.9-.4-2.3-.6-3.7-.4-1.5.2-2.7.7-3.5,1.3s-1.1,1.1-1,1.3h0Z"/>
            <path class="st2" d="M92,150.2c.5.4,2.1-.2,4.2-.4,2-.2,3.8,0,4.2-.5.2-.3-.2-.7-.9-1.1-.8-.4-2.1-.7-3.5-.5-1.4.1-2.6.7-3.3,1.2-.7.5-.9,1-.7,1.3Z"/>
            <path class="st0" d="M135.8,159.7c.2-.1,9.1-3.6,9.6,5.7.6,9.3-8.9,7.9-8.9,7.7,0-.3-.7-13.4-.7-13.4h0Z"/>
            <path class="st1" d="M139.1,169.4s.2.1.4.2c.3.1.7.2,1.2,0,1-.4,1.7-2,1.6-3.7,0-.8-.3-1.6-.6-2.3s-.8-1.1-1.3-1.2c-.5,0-.8.2-.9.5-.1.3,0,.4,0,.5,0,0-.2-.1-.2-.5s.1-.4.3-.6c.2-.2.5-.3.9-.3.7,0,1.4.6,1.8,1.3.4.7.7,1.6.7,2.6,0,1.9-.8,3.7-2.1,4.2-.6.2-1.2,0-1.5-.2s-.4-.4-.3-.4h0Z"/>
            <path class="st2" d="M113.6,171.7c-.3,0-.2,2.1-2,3.7-1.8,1.6-4,1.5-4,1.8s.5.4,1.5.4,2.3-.4,3.4-1.4,1.5-2.2,1.5-3.1-.2-1.4-.4-1.4Z"/>
          </g>
          <g>
            <path class="st2" d="M69.6,138.5c0-.6.5-1,1-1.4,1-.7,2.3-.7,3.4-.8,2.9-.2,5.8-1.2,8.4-2.7-.9-.4-1.8-.9-2.6-1.6-1.6-1.4-2.6-3.6-2-5.7,0-.4.3-.8.7-.9.6-.2,1.2.3,1.6.8,1.5,1.5,2.8,2,4.9,1.7,1.3-.2,2.5-.6,3.5-1.3h0c.5-.6.9-1.1,1.3-1.6h0c3.3-3.7,6.1-6.3,9.2-7.7,4.4-2.1,12-3.3,16.8-2.4s9.3,4.5,10.3,9.3c2.5-2.4,6.5-2.6,9.8-1.5h0c3.7,1,6,4.7,7.2,8.3,0,.2.1.4.2.6,1.3,1.9,3.1,3.4,5.1,4.4s.8.4.8.8-.2.7-.6,1c-.8.7-1.8,1.1-2.8,1.4.4.9.8,1.7,1.3,2.5.4.7,1,1.5.7,2.2-.2.6-.9.8-1.5.8s-1.2-.4-1.7-.7c.5.9.9,1.9,1.4,2.8-1.3.3-2.6.3-3.9,0-.6,3.5-.7,9.9-1.5,12.3-2.5.2-3.1,0-4.3.5-1.6.6-.8,3.4-2.9,2.8-1.1-.3-3-4.3-3.4-5.4-2.8-7.1-4.1-14.7-3.7-22.3-1.6-1.5-3.5-2.7-5.5-3.5h.2c-3.9-.9-8.3-2-11.8,0-2.7,1.6-4.2,4.6-6.1,7-3.7,4.6-8,7.3-13.9,7.9-.3,4.1,0,10.9,0,14.7l-3.7-7.5h0c-.3-.4-.5-.8-.8-1.3h0v-.2c-.4-.7-.7-1.4-1.2-2.1h0c-2,2-5.2-.7-3.7-3,.3-.5.7-.9,1.1-1.2-.9.9-2.3,1.5-3.5,1.2-1.3-.3-2.3-1.5-2.3-2.8s.6-1.7,1.4-2.1c-1.7.2-3.4,0-4.9-.8-1-.5-2-1.3-1.7-2.6h-.4,0Z"/>
            <path class="st7" d="M121.8,126.1s.6.3,1.4,1.2c.8.8,1.8,2.3,2.4,4.4.3,1,.5,2.2.6,3.4v4c0,1.4,0,2.9.2,4.5,0,.8.2,1.6.5,2.3.2.8.5,1.6,1.1,2.2.5.5,1.3.7,2,.5s1.3-.6,1.7-1.1c.8-1.1,1-2.4,1.1-3.5h-.3c.5,1,1.1,2,1.8,2.8s1.7,1.3,2.7,1.3,1,0,1.4-.3c.4-.2.7-.6.9-1s.3-.8.2-1.2c0-.4-.2-.8-.5-1h-.1c1.1,1.3,2.3,1.8,3.1,2.1.4.2.7.2.9.3h.3s-.1,0-.3-.1c-.2,0-.5-.2-.9-.3-.8-.3-1.9-.9-3-2.1h-.1c.5.6.6,1.4.2,2.2-.2.4-.4.7-.8.9-.4.2-.8.3-1.3.3-.9,0-1.8-.5-2.5-1.2s-1.2-1.7-1.8-2.7l-.2-.4v.5c-.2,1.2-.4,2.4-1.1,3.4-.4.5-.9.8-1.5,1s-1.2,0-1.7-.4c-.5-.5-.8-1.3-1-2.1s-.4-1.5-.4-2.3c-.2-1.5-.2-3-.2-4.4v-4c0-1.3-.3-2.4-.6-3.5-.6-2.1-1.6-3.6-2.5-4.4-.9-.8-1.5-1.1-1.5-1.1l-.2-.2h0Z"/>
            <path class="st7" d="M80.5,141.9h0s.2.1.4.2c.2.1.4.2.6.3s.5.3.9.4c1.3.5,3.4,1,5.9.7s5.5-1.4,8-3.5c2.6-2.1,4.8-5.1,6.6-8.6.9-1.7,1.6-3.4,2.4-5.1.8-1.6,1.7-3.1,2.8-4.3,1.1-1.2,2.4-2.1,3.8-2.6.7-.3,1.4-.3,2.1-.4.7,0,1.3,0,1.9.2,1.2.3,2.2.9,2.9,1.5.8.6,1.3,1.3,1.7,1.9.7,1.2.8,2,.8,2h0v-.5c0-.4-.3-.9-.6-1.5-.4-.6-.9-1.3-1.7-2-.8-.6-1.8-1.3-3-1.6-.6-.2-1.3-.3-2-.3s-1.4,0-2.1.4c-1.4.5-2.8,1.4-3.9,2.7-1.1,1.2-2.1,2.8-2.8,4.4-.8,1.6-1.5,3.4-2.4,5.1-1.7,3.4-3.9,6.4-6.5,8.5-2.5,2.1-5.4,3.2-7.9,3.5s-4.5,0-5.8-.6c-1.3-.5-1.9-1-2-.9h-.2,0Z"/>
            <path class="st7" d="M78.9,136s.2.1.5.3.8.4,1.5.6c.6.2,1.4.4,2.3.6.9.1,1.9.2,2.9.2s2-.2,2.9-.4,1.7-.5,2.3-.7c.6-.3,1.1-.5,1.4-.7s.5-.3.5-.3c0,0-.8.4-2,.9-.6.2-1.4.5-2.3.7s-1.8.3-2.9.4c-1,0-2,0-2.9-.2-.9-.1-1.7-.3-2.3-.5-1.3-.4-2-.8-2.1-.7l.2-.2h0Z"/>
          </g>
        </g>
        <g>
          <path class="st9" d="M180.4,310.8l.9-4.5c-11.3-5-21.6-12.1-30.3-20.9l-50.1-50.6,1.3-14.5,24.6-23.1s11.8-7.8,27-1.8c17.3,6.9,24.6,16.6,44.8,40.1,8,9.3,3.5,1.5,11.3,6.6,0,0-4.9,26.7-14.2,43.2-6.8,12.1-15.5,25.5-15.5,25.5h.2Z"/>
          <path class="st2" d="M106.2,240.2s-.8-.9-1.8-2.6c-1.1-1.6-2.4-4-3.7-6.7-1.3-2.7-2.3-5.2-3-7-.6-1.8-1-3-.9-3,0,0,.5,1.1,1.3,2.9.7,1.8,1.8,4.3,3.1,6.9,1.3,2.7,2.6,5,3.6,6.7s1.6,2.7,1.5,2.8h0Z"/>
        </g>
        <g>
          <g class="st6">
            <path d="M193.3,273.6s1.5-8.2-1.7-16.4c-3.1-8.2-11.2-19.7-11.2-19.7l-2.8,2.6,15.7,33.4h0Z"/>
          </g>
          <path class="st0" d="M150,323.9l18-47.2-9.5-11.9-17.9-22s-12.8-6.6-18.9-16.4c-1.9-3.1-2.3-8.2-.3-12,5.6-10.6,17.2-14.8,28.7-11.6l10.2,6.7s33.5,52.6,33,62.7c-.4,7.2-28.7,55.6-28.7,55.6l-14.6-3.8h0Z"/>
          <path class="st0" d="M151.3,321.9l-20,1.7c-2.1.2-4,1.3-5.1,3.1l-9,14.1s3.6,1.7,5.9-1c2.4-2.7,6.2-8.2,6.2-8.2l-1.7,15.7s4.6.5,5.4-3.1c.9-4,1-9.3,1-9.3l4.5,15s4.9-1.6,3.3-7.3c-1-3.6-2.1-7.2-2.1-7.2l5.5,9.7s4-.4,3-4c-.7-2.4-2.8-7.2-2.8-7.2,0,0,11.5.9,13.8,0,3.1-1.1,6.3-7.8,6.3-7.8l-14.2-4.5v.3h0Z"/>
          <g>
            <path class="st9" d="M133.5,200s-16.8,9-15,21.6,16.3,19.2,16.3,19.2l18.8,20.1,29.5-25.6-26.8-33.3"/>
            <path class="st2" d="M156.3,202h.1c.1.2.2.4.4.5.4.4.8,1,1.5,1.8,1.3,1.6,3.2,3.9,5.5,6.8,4.7,5.9,11.5,14.2,19.5,24.1v.2c.1,0,0,.2,0,.2-8.6,7.5-18.7,16.2-29.3,25.5h-.1c0,.1-.2.3-.2.3l-.2-.2c-6.6-7.1-13-13.9-18.8-20.1h0c-3.6-1.7-6.7-4-9.3-6.5-2.6-2.6-4.7-5.4-5.9-8.5-.2-.8-.6-1.5-.7-2.3s-.4-1.5-.4-2.3c-.2-1.5,0-3.1.2-4.5.6-2.8,2-5.2,3.4-7.1,2.9-3.8,6-6.1,8.1-7.6,1.1-.7,1.9-1.3,2.5-1.6.3-.2.5-.3.7-.4.2,0,.2-.1.2-.1h-.2c-.2.2-.4.3-.6.5-.6.4-1.4.9-2.5,1.7-2.1,1.5-5.1,3.9-8,7.7-1.4,1.9-2.7,4.2-3.3,7-.3,1.4-.4,2.9-.2,4.4,0,.8.3,1.5.4,2.3.2.8.5,1.5.7,2.3,2.4,6,8.1,11.3,15,14.8h0c5.8,6.2,12.2,13,18.8,20.1h-.4.1c10.7-9.4,20.7-18.1,29.4-25.6v.3c-8-10-14.7-18.3-19.4-24.2-2.3-2.9-4.1-5.2-5.4-6.8-.6-.8-1.1-1.4-1.4-1.8-.1-.2-.3-.3-.4-.5,0-.1-.1-.2-.1-.2l.3-.2h0Z"/>
          </g>
        </g>
        <path class="st1" d="M135.6,325.8s-.7,0-1.6.3c-1,.3-2.3.9-3.3,2.1s-1.4,2.6-1.5,3.6v1.7s-.3-.6-.3-1.7.4-2.6,1.4-3.9c1.1-1.3,2.5-1.9,3.6-2.1s1.7,0,1.7,0h0Z"/>
        <path class="st1" d="M137.5,328.1s-.4.4-1.1.8c-.3.2-.7.5-1.1.9-.4.4-.8.8-1,1.3-.4,1.1-.3,2.3-.2,3.1,0,.8.2,1.3.1,1.3,0,0-.3-.4-.5-1.3-.2-.8-.3-2.1.1-3.4.2-.7.8-1.1,1.2-1.5s.9-.6,1.2-.8c.7-.4,1.2-.6,1.3-.5h0Z"/>
        <path class="st1" d="M145.8,330s-.6.3-1.6.4-2.5.2-3.4,1.4c-.9,1.2-1.1,2.6-.9,3.5.2,1,.5,1.5.4,1.6,0,0-.5-.5-.8-1.5s-.2-2.6.8-3.9c.5-.7,1.3-1.1,1.9-1.2.7-.2,1.3-.2,1.8-.2h1.8Z"/>
        <path class="st1" d="M161.4,325.7c0,.1-2.5-.7-5.4-1.8-1.5-.6-2.8-1.1-3.7-1.5s-1.5-.7-1.5-.7c0-.2,2.5.6,5.4,1.7s5.2,2.1,5.2,2.3Z"/>
      </g>
      <g class="st6">
        <path d="M206.3,236.7s-3.6,31.4-10.6,44.2-12.8,23.8-12.8,23.8l-.5,2.4s14.3-22.5,16.9-28.1c2.6-5.6,7.3-16.9,9.9-27.8,2.6-10.9,3-12.8,2.9-12.8,0,0-4.1-3-5.7-1.7h0Z"/>
      </g>
    </g>
  </g>
</svg>